<mxfile host="app.diagrams.net" agent="Mozilla/5.0 (Macintosh; Intel Mac OS X 10_15_7) AppleWebKit/537.36 (KHTML, like Gecko) Chrome/131.0.0.0 Safari/537.36" version="25.0.3" pages="3">
  <diagram name="第 1 页" id="9VrJZI_YpJ6gEpspNkR1">
    <mxGraphModel dx="1434" dy="761" grid="1" gridSize="10" guides="1" tooltips="1" connect="1" arrows="1" fold="1" page="1" pageScale="1" pageWidth="827" pageHeight="1169" math="0" shadow="0">
      <root>
        <mxCell id="0" />
        <mxCell id="1" parent="0" />
        <mxCell id="54Mv0djOtWei08MxR8gz-3" style="edgeStyle=orthogonalEdgeStyle;rounded=0;orthogonalLoop=1;jettySize=auto;html=1;entryX=0;entryY=0.5;entryDx=0;entryDy=0;" edge="1" parent="1" source="54Mv0djOtWei08MxR8gz-1" target="54Mv0djOtWei08MxR8gz-2">
          <mxGeometry relative="1" as="geometry" />
        </mxCell>
        <mxCell id="54Mv0djOtWei08MxR8gz-4" value="https://192.168.0.112:8006/" style="edgeLabel;html=1;align=center;verticalAlign=middle;resizable=0;points=[];" vertex="1" connectable="0" parent="54Mv0djOtWei08MxR8gz-3">
          <mxGeometry x="-0.1452" y="2" relative="1" as="geometry">
            <mxPoint as="offset" />
          </mxGeometry>
        </mxCell>
        <mxCell id="54Mv0djOtWei08MxR8gz-1" value="" style="dashed=0;outlineConnect=0;html=1;align=center;labelPosition=center;verticalLabelPosition=bottom;verticalAlign=top;shape=mxgraph.weblogos.chrome" vertex="1" parent="1">
          <mxGeometry x="229" y="143" width="70" height="70" as="geometry" />
        </mxCell>
        <mxCell id="54Mv0djOtWei08MxR8gz-2" value="PVE&lt;div&gt;192.168.0.112:8006&lt;/div&gt;" style="rounded=1;whiteSpace=wrap;html=1;fillColor=#d80073;strokeColor=#A50040;fontColor=#ffffff;" vertex="1" parent="1">
          <mxGeometry x="479" y="148" width="120" height="60" as="geometry" />
        </mxCell>
        <mxCell id="54Mv0djOtWei08MxR8gz-6" value="Cookies" style="text;html=1;align=center;verticalAlign=middle;whiteSpace=wrap;rounded=0;" vertex="1" parent="1">
          <mxGeometry x="336" y="183" width="60" height="30" as="geometry" />
        </mxCell>
        <mxCell id="54Mv0djOtWei08MxR8gz-9" value="" style="shape=image;html=1;verticalAlign=top;verticalLabelPosition=bottom;labelBackgroundColor=#ffffff;imageAspect=0;aspect=fixed;image=https://cdn3.iconfinder.com/data/icons/flat-actions-icons-9/512/Tick_Mark-128.png" vertex="1" parent="1">
          <mxGeometry x="396" y="183" width="27" height="27" as="geometry" />
        </mxCell>
        <mxCell id="54Mv0djOtWei08MxR8gz-10" style="edgeStyle=orthogonalEdgeStyle;rounded=0;orthogonalLoop=1;jettySize=auto;html=1;entryX=0;entryY=0.5;entryDx=0;entryDy=0;" edge="1" parent="1" source="54Mv0djOtWei08MxR8gz-12" target="54Mv0djOtWei08MxR8gz-13">
          <mxGeometry relative="1" as="geometry" />
        </mxCell>
        <mxCell id="54Mv0djOtWei08MxR8gz-11" value="http://pve.home.lan/" style="edgeLabel;html=1;align=center;verticalAlign=middle;resizable=0;points=[];" vertex="1" connectable="0" parent="54Mv0djOtWei08MxR8gz-10">
          <mxGeometry x="-0.1452" y="2" relative="1" as="geometry">
            <mxPoint as="offset" />
          </mxGeometry>
        </mxCell>
        <mxCell id="54Mv0djOtWei08MxR8gz-12" value="" style="dashed=0;outlineConnect=0;html=1;align=center;labelPosition=center;verticalLabelPosition=bottom;verticalAlign=top;shape=mxgraph.weblogos.chrome" vertex="1" parent="1">
          <mxGeometry x="140" y="250" width="70" height="70" as="geometry" />
        </mxCell>
        <mxCell id="54Mv0djOtWei08MxR8gz-18" style="edgeStyle=orthogonalEdgeStyle;rounded=0;orthogonalLoop=1;jettySize=auto;html=1;entryX=0;entryY=0.5;entryDx=0;entryDy=0;" edge="1" parent="1" source="54Mv0djOtWei08MxR8gz-13" target="54Mv0djOtWei08MxR8gz-17">
          <mxGeometry relative="1" as="geometry" />
        </mxCell>
        <mxCell id="54Mv0djOtWei08MxR8gz-19" value="https://192.168.0.112:8006/" style="edgeLabel;html=1;align=center;verticalAlign=middle;resizable=0;points=[];" vertex="1" connectable="0" parent="54Mv0djOtWei08MxR8gz-18">
          <mxGeometry x="-0.1692" y="-1" relative="1" as="geometry">
            <mxPoint x="9" y="-1" as="offset" />
          </mxGeometry>
        </mxCell>
        <mxCell id="54Mv0djOtWei08MxR8gz-13" value="Kong&lt;div&gt;API gataway&lt;/div&gt;&lt;div&gt;192.168.0.110:80&lt;/div&gt;" style="rounded=1;whiteSpace=wrap;html=1;fillColor=#1ba1e2;strokeColor=#006EAF;fontColor=#ffffff;" vertex="1" parent="1">
          <mxGeometry x="350" y="255" width="120" height="60" as="geometry" />
        </mxCell>
        <mxCell id="54Mv0djOtWei08MxR8gz-14" value="Cookies" style="text;html=1;align=center;verticalAlign=middle;whiteSpace=wrap;rounded=0;" vertex="1" parent="1">
          <mxGeometry x="230" y="290" width="60" height="30" as="geometry" />
        </mxCell>
        <mxCell id="54Mv0djOtWei08MxR8gz-16" value="" style="shape=mxgraph.signs.safety.no_entry;html=1;pointerEvents=1;fillColor=#000000;strokeColor=none;verticalLabelPosition=bottom;verticalAlign=top;align=center;" vertex="1" parent="1">
          <mxGeometry x="291" y="292.5" width="25" height="25" as="geometry" />
        </mxCell>
        <mxCell id="54Mv0djOtWei08MxR8gz-17" value="PVE&lt;div&gt;192.168.0.112:8006&lt;/div&gt;" style="rounded=1;whiteSpace=wrap;html=1;fillColor=#d80073;strokeColor=#A50040;fontColor=#ffffff;" vertex="1" parent="1">
          <mxGeometry x="630" y="255" width="120" height="60" as="geometry" />
        </mxCell>
        <mxCell id="54Mv0djOtWei08MxR8gz-21" value="&lt;b&gt;&lt;font color=&quot;#3399ff&quot; style=&quot;font-size: 18px;&quot;&gt;HTTPS&lt;/font&gt;&lt;/b&gt;" style="text;html=1;align=center;verticalAlign=middle;whiteSpace=wrap;rounded=0;" vertex="1" parent="1">
          <mxGeometry x="350" y="143" width="60" height="30" as="geometry" />
        </mxCell>
        <mxCell id="54Mv0djOtWei08MxR8gz-22" value="&lt;b&gt;&lt;font color=&quot;#3399ff&quot; style=&quot;font-size: 18px;&quot;&gt;HTTP&lt;/font&gt;&lt;/b&gt;" style="text;html=1;align=center;verticalAlign=middle;whiteSpace=wrap;rounded=0;" vertex="1" parent="1">
          <mxGeometry x="239" y="250" width="60" height="30" as="geometry" />
        </mxCell>
        <mxCell id="54Mv0djOtWei08MxR8gz-23" value="&lt;b&gt;&lt;font color=&quot;#3399ff&quot; style=&quot;font-size: 18px;&quot;&gt;HTTPS&lt;/font&gt;&lt;/b&gt;" style="text;html=1;align=center;verticalAlign=middle;whiteSpace=wrap;rounded=0;" vertex="1" parent="1">
          <mxGeometry x="520" y="250" width="60" height="30" as="geometry" />
        </mxCell>
      </root>
    </mxGraphModel>
  </diagram>
  <diagram id="K2Kap-jXaAheJpTPBIvI" name="第 2 页">
    <mxGraphModel dx="1103" dy="585" grid="1" gridSize="10" guides="1" tooltips="1" connect="1" arrows="1" fold="1" page="1" pageScale="1" pageWidth="827" pageHeight="1169" math="0" shadow="0">
      <root>
        <mxCell id="0" />
        <mxCell id="1" parent="0" />
        <mxCell id="4o4SUJem6joKyU4sRVz0-1" value="" style="rounded=1;whiteSpace=wrap;html=1;fillColor=#d5e8d4;strokeColor=#82b366;" vertex="1" parent="1">
          <mxGeometry x="80" y="376" width="120" height="250" as="geometry" />
        </mxCell>
        <mxCell id="4o4SUJem6joKyU4sRVz0-2" value="" style="rounded=1;whiteSpace=wrap;html=1;fillColor=#dae8fc;strokeColor=#6c8ebf;dashed=1;" vertex="1" parent="1">
          <mxGeometry x="454" y="366" width="86" height="64" as="geometry" />
        </mxCell>
        <mxCell id="4o4SUJem6joKyU4sRVz0-3" value="" style="rounded=1;whiteSpace=wrap;html=1;fillColor=#fff2cc;strokeColor=#d6b656;" vertex="1" parent="1">
          <mxGeometry x="650" y="420" width="120" height="206" as="geometry" />
        </mxCell>
        <mxCell id="4o4SUJem6joKyU4sRVz0-4" value="" style="endArrow=classic;html=1;rounded=0;strokeColor=#7c8183;align=center;verticalAlign=middle;fontFamily=Helvetica;fontSize=11;fontColor=default;labelBackgroundColor=default;" edge="1" parent="1">
          <mxGeometry width="50" height="50" relative="1" as="geometry">
            <mxPoint x="210" y="587" as="sourcePoint" />
            <mxPoint x="640" y="587" as="targetPoint" />
          </mxGeometry>
        </mxCell>
        <mxCell id="4o4SUJem6joKyU4sRVz0-5" value="" style="endArrow=classic;html=1;rounded=0;strokeColor=#7c8183;align=center;verticalAlign=middle;fontFamily=Helvetica;fontSize=11;fontColor=default;labelBackgroundColor=default;" edge="1" parent="1">
          <mxGeometry width="50" height="50" relative="1" as="geometry">
            <mxPoint x="640" y="597" as="sourcePoint" />
            <mxPoint x="210" y="597" as="targetPoint" />
          </mxGeometry>
        </mxCell>
        <mxCell id="4o4SUJem6joKyU4sRVz0-6" value="对称加密：client-key 加密 client-key 解密" style="text;html=1;align=center;verticalAlign=middle;whiteSpace=wrap;rounded=0;" vertex="1" parent="1">
          <mxGeometry x="350" y="574" width="240" height="10" as="geometry" />
        </mxCell>
        <mxCell id="4o4SUJem6joKyU4sRVz0-7" value="对称加密：server-key 加密 server-key 解密" style="text;html=1;align=center;verticalAlign=middle;whiteSpace=wrap;rounded=0;" vertex="1" parent="1">
          <mxGeometry x="350.2" y="604.4" width="240" height="10" as="geometry" />
        </mxCell>
        <mxCell id="4o4SUJem6joKyU4sRVz0-8" value="" style="sketch=0;aspect=fixed;html=1;align=center;fontSize=12;image=img/lib/mscae/Key.svg;pointerEvents=1;shadow=0;dashed=0;strokeColor=none;labelPosition=center;verticalLabelPosition=bottom;verticalAlign=top;outlineConnect=0;shape=mxgraph.office.security.key_permissions;fillColor=#7FBA42;" vertex="1" parent="1">
          <mxGeometry x="534" y="207.21" width="12.4" height="20" as="geometry" />
        </mxCell>
        <mxCell id="4o4SUJem6joKyU4sRVz0-9" value="" style="sketch=0;aspect=fixed;pointerEvents=1;shadow=0;dashed=0;html=1;strokeColor=none;labelPosition=center;verticalLabelPosition=bottom;verticalAlign=top;align=center;fillColor=#00188D;shape=mxgraph.mscae.enterprise.key_permissions" vertex="1" parent="1">
          <mxGeometry x="535" y="233.21" width="10.4" height="20" as="geometry" />
        </mxCell>
        <mxCell id="4o4SUJem6joKyU4sRVz0-12" value="公钥" style="text;html=1;align=left;verticalAlign=middle;whiteSpace=wrap;rounded=0;" vertex="1" parent="1">
          <mxGeometry x="563" y="208.71" width="39.4" height="18.5" as="geometry" />
        </mxCell>
        <mxCell id="4o4SUJem6joKyU4sRVz0-13" value="私钥" style="text;html=1;align=left;verticalAlign=middle;whiteSpace=wrap;rounded=0;" vertex="1" parent="1">
          <mxGeometry x="563" y="233.21" width="39.4" height="17.5" as="geometry" />
        </mxCell>
        <mxCell id="4o4SUJem6joKyU4sRVz0-14" value="&lt;span style=&quot;font-size: 18px;&quot;&gt;&lt;b&gt;Browser&lt;/b&gt;&lt;/span&gt;" style="text;html=1;align=center;verticalAlign=middle;whiteSpace=wrap;rounded=0;fontColor=#FF0080;" vertex="1" parent="1">
          <mxGeometry x="110" y="346" width="60" height="30" as="geometry" />
        </mxCell>
        <mxCell id="4o4SUJem6joKyU4sRVz0-15" value="&lt;b&gt;&lt;font style=&quot;font-size: 18px;&quot;&gt;Server&lt;/font&gt;&lt;/b&gt;" style="text;html=1;align=center;verticalAlign=middle;whiteSpace=wrap;rounded=0;fontColor=#FF0080;" vertex="1" parent="1">
          <mxGeometry x="680" y="390" width="60" height="30" as="geometry" />
        </mxCell>
        <mxCell id="4o4SUJem6joKyU4sRVz0-28" value="" style="sketch=0;aspect=fixed;html=1;align=center;fontSize=12;image=img/lib/mscae/Key.svg;pointerEvents=1;shadow=0;dashed=0;strokeColor=none;labelPosition=center;verticalLabelPosition=bottom;verticalAlign=top;outlineConnect=0;shape=mxgraph.office.security.key_permissions;fillColor=#7FBA42;" vertex="1" parent="1">
          <mxGeometry x="464" y="373.5" width="12.4" height="20" as="geometry" />
        </mxCell>
        <mxCell id="4o4SUJem6joKyU4sRVz0-29" value="" style="sketch=0;aspect=fixed;pointerEvents=1;shadow=0;dashed=0;html=1;strokeColor=none;labelPosition=center;verticalLabelPosition=bottom;verticalAlign=top;align=center;fillColor=#00188D;shape=mxgraph.mscae.enterprise.key_permissions" vertex="1" parent="1">
          <mxGeometry x="465" y="399.5" width="10.4" height="20" as="geometry" />
        </mxCell>
        <mxCell id="4o4SUJem6joKyU4sRVz0-30" value="ca.2.crt" style="text;html=1;align=left;verticalAlign=middle;whiteSpace=wrap;rounded=0;" vertex="1" parent="1">
          <mxGeometry x="484" y="370.5" width="60" height="30" as="geometry" />
        </mxCell>
        <mxCell id="4o4SUJem6joKyU4sRVz0-31" value="ca.2.key" style="text;html=1;align=left;verticalAlign=middle;whiteSpace=wrap;rounded=0;" vertex="1" parent="1">
          <mxGeometry x="484" y="399.5" width="60" height="30" as="geometry" />
        </mxCell>
        <mxCell id="4o4SUJem6joKyU4sRVz0-78" style="edgeStyle=orthogonalEdgeStyle;rounded=0;orthogonalLoop=1;jettySize=auto;html=1;entryX=1;entryY=0.5;entryDx=0;entryDy=0;startArrow=none;startFill=0;strokeColor=#7c8183;align=center;verticalAlign=middle;fontFamily=Helvetica;fontSize=11;fontColor=default;labelBackgroundColor=default;endArrow=classic;" edge="1" parent="1" source="4o4SUJem6joKyU4sRVz0-38" target="4o4SUJem6joKyU4sRVz0-74">
          <mxGeometry relative="1" as="geometry" />
        </mxCell>
        <mxCell id="4o4SUJem6joKyU4sRVz0-80" value="&lt;font style=&quot;font-size: 18px;&quot;&gt;TLS handshake&lt;/font&gt;" style="edgeLabel;html=1;align=center;verticalAlign=middle;resizable=0;points=[];rounded=0;strokeColor=#7c8183;fontFamily=Helvetica;fontSize=11;fontColor=#CC0066;labelBackgroundColor=default;" vertex="1" connectable="0" parent="4o4SUJem6joKyU4sRVz0-78">
          <mxGeometry x="0.0599" y="1" relative="1" as="geometry">
            <mxPoint as="offset" />
          </mxGeometry>
        </mxCell>
        <mxCell id="4o4SUJem6joKyU4sRVz0-38" value="" style="sketch=0;aspect=fixed;html=1;align=center;fontSize=12;image=img/lib/mscae/Key.svg;pointerEvents=1;shadow=0;dashed=0;strokeColor=none;labelPosition=center;verticalLabelPosition=bottom;verticalAlign=top;outlineConnect=0;shape=mxgraph.office.security.key_permissions;fillColor=#7FBA42;" vertex="1" parent="1">
          <mxGeometry x="670" y="466" width="12.4" height="20" as="geometry" />
        </mxCell>
        <mxCell id="4o4SUJem6joKyU4sRVz0-39" value="" style="sketch=0;aspect=fixed;pointerEvents=1;shadow=0;dashed=0;html=1;strokeColor=none;labelPosition=center;verticalLabelPosition=bottom;verticalAlign=top;align=center;fillColor=#00188D;shape=mxgraph.mscae.enterprise.key_permissions" vertex="1" parent="1">
          <mxGeometry x="671" y="493" width="10.4" height="20" as="geometry" />
        </mxCell>
        <mxCell id="4o4SUJem6joKyU4sRVz0-40" value="server.crt" style="text;html=1;align=left;verticalAlign=middle;whiteSpace=wrap;rounded=0;" vertex="1" parent="1">
          <mxGeometry x="690" y="461" width="60" height="30" as="geometry" />
        </mxCell>
        <mxCell id="4o4SUJem6joKyU4sRVz0-41" value="server.key" style="text;html=1;align=left;verticalAlign=middle;whiteSpace=wrap;rounded=0;" vertex="1" parent="1">
          <mxGeometry x="690" y="490" width="60" height="30" as="geometry" />
        </mxCell>
        <mxCell id="4o4SUJem6joKyU4sRVz0-43" value="" style="rounded=1;whiteSpace=wrap;html=1;fillColor=#dae8fc;strokeColor=#6c8ebf;dashed=1;" vertex="1" parent="1">
          <mxGeometry x="364" y="285.5" width="86" height="66" as="geometry" />
        </mxCell>
        <mxCell id="4o4SUJem6joKyU4sRVz0-44" value="&lt;b&gt;&lt;font style=&quot;font-size: 18px;&quot;&gt;中间 CA&lt;/font&gt;&lt;/b&gt;" style="text;html=1;align=center;verticalAlign=middle;whiteSpace=wrap;rounded=0;fontColor=#FF0080;textOpacity=50;" vertex="1" parent="1">
          <mxGeometry x="367.5" y="260.5" width="76.5" height="20" as="geometry" />
        </mxCell>
        <mxCell id="4o4SUJem6joKyU4sRVz0-45" value="" style="sketch=0;aspect=fixed;html=1;align=center;fontSize=12;image=img/lib/mscae/Key.svg;pointerEvents=1;shadow=0;dashed=0;strokeColor=none;labelPosition=center;verticalLabelPosition=bottom;verticalAlign=top;outlineConnect=0;shape=mxgraph.office.security.key_permissions;fillColor=#7FBA42;" vertex="1" parent="1">
          <mxGeometry x="374" y="293.5" width="12.4" height="20" as="geometry" />
        </mxCell>
        <mxCell id="4o4SUJem6joKyU4sRVz0-46" value="" style="sketch=0;aspect=fixed;pointerEvents=1;shadow=0;dashed=0;html=1;strokeColor=none;labelPosition=center;verticalLabelPosition=bottom;verticalAlign=top;align=center;fillColor=#00188D;shape=mxgraph.mscae.enterprise.key_permissions" vertex="1" parent="1">
          <mxGeometry x="375" y="319.5" width="10.4" height="20" as="geometry" />
        </mxCell>
        <mxCell id="4o4SUJem6joKyU4sRVz0-47" value="ca.1.crt" style="text;html=1;align=left;verticalAlign=middle;whiteSpace=wrap;rounded=0;" vertex="1" parent="1">
          <mxGeometry x="394" y="290.5" width="60" height="30" as="geometry" />
        </mxCell>
        <mxCell id="4o4SUJem6joKyU4sRVz0-48" value="ca.1.key" style="text;html=1;align=left;verticalAlign=middle;whiteSpace=wrap;rounded=0;" vertex="1" parent="1">
          <mxGeometry x="394" y="319.5" width="60" height="30" as="geometry" />
        </mxCell>
        <mxCell id="4o4SUJem6joKyU4sRVz0-49" value="" style="rounded=1;whiteSpace=wrap;html=1;fillColor=#dae8fc;strokeColor=#6c8ebf;" vertex="1" parent="1">
          <mxGeometry x="274" y="146" width="80" height="130" as="geometry" />
        </mxCell>
        <mxCell id="4o4SUJem6joKyU4sRVz0-50" value="&lt;b&gt;&lt;font style=&quot;font-size: 18px;&quot;&gt;根 CA&lt;/font&gt;&lt;/b&gt;" style="text;html=1;align=center;verticalAlign=middle;whiteSpace=wrap;rounded=0;fontColor=#FF0080;" vertex="1" parent="1">
          <mxGeometry x="279.75" y="121" width="68.5" height="20" as="geometry" />
        </mxCell>
        <mxCell id="4o4SUJem6joKyU4sRVz0-75" style="edgeStyle=orthogonalEdgeStyle;rounded=0;orthogonalLoop=1;jettySize=auto;html=1;entryX=0.57;entryY=0.044;entryDx=0;entryDy=0;entryPerimeter=0;strokeColor=#7c8183;curved=1;" edge="1" parent="1" source="4o4SUJem6joKyU4sRVz0-51" target="4o4SUJem6joKyU4sRVz0-71">
          <mxGeometry relative="1" as="geometry">
            <mxPoint x="220" y="416" as="targetPoint" />
          </mxGeometry>
        </mxCell>
        <mxCell id="4o4SUJem6joKyU4sRVz0-76" value="内置于" style="edgeLabel;html=1;align=center;verticalAlign=middle;resizable=0;points=[];" vertex="1" connectable="0" parent="4o4SUJem6joKyU4sRVz0-75">
          <mxGeometry x="0.3053" y="2" relative="1" as="geometry">
            <mxPoint x="23" y="-6" as="offset" />
          </mxGeometry>
        </mxCell>
        <mxCell id="4o4SUJem6joKyU4sRVz0-51" value="" style="sketch=0;aspect=fixed;html=1;align=center;fontSize=12;image=img/lib/mscae/Key.svg;pointerEvents=1;shadow=0;dashed=0;strokeColor=none;labelPosition=center;verticalLabelPosition=bottom;verticalAlign=top;outlineConnect=0;shape=mxgraph.office.security.key_permissions;fillColor=#7FBA42;" vertex="1" parent="1">
          <mxGeometry x="284" y="159" width="12.4" height="20" as="geometry" />
        </mxCell>
        <mxCell id="4o4SUJem6joKyU4sRVz0-98" style="edgeStyle=orthogonalEdgeStyle;rounded=0;orthogonalLoop=1;jettySize=auto;html=1;strokeColor=#7c8183;fontColor=default;fillColor=#FAE5C7;align=center;verticalAlign=middle;fontFamily=Helvetica;fontSize=11;labelBackgroundColor=default;endArrow=classic;dashed=1;" edge="1" parent="1" source="4o4SUJem6joKyU4sRVz0-52" target="4o4SUJem6joKyU4sRVz0-51">
          <mxGeometry relative="1" as="geometry" />
        </mxCell>
        <mxCell id="4o4SUJem6joKyU4sRVz0-99" value="自签名" style="edgeLabel;html=1;align=center;verticalAlign=middle;resizable=0;points=[];strokeColor=#7c8183;fontColor=default;fillColor=#FAE5C7;rounded=0;fontFamily=Helvetica;fontSize=11;labelBackgroundColor=default;" vertex="1" connectable="0" parent="4o4SUJem6joKyU4sRVz0-98">
          <mxGeometry x="-0.1873" relative="1" as="geometry">
            <mxPoint x="6" y="-3" as="offset" />
          </mxGeometry>
        </mxCell>
        <mxCell id="4o4SUJem6joKyU4sRVz0-52" value="" style="sketch=0;aspect=fixed;pointerEvents=1;shadow=0;dashed=0;html=1;strokeColor=none;labelPosition=center;verticalLabelPosition=bottom;verticalAlign=top;align=center;fillColor=#00188D;shape=mxgraph.mscae.enterprise.key_permissions" vertex="1" parent="1">
          <mxGeometry x="285" y="239.5" width="10.4" height="20" as="geometry" />
        </mxCell>
        <mxCell id="4o4SUJem6joKyU4sRVz0-53" value="ca.crt" style="text;html=1;align=left;verticalAlign=middle;whiteSpace=wrap;rounded=0;" vertex="1" parent="1">
          <mxGeometry x="304" y="156" width="60" height="30" as="geometry" />
        </mxCell>
        <mxCell id="4o4SUJem6joKyU4sRVz0-54" value="ca.key" style="text;html=1;align=left;verticalAlign=middle;whiteSpace=wrap;rounded=0;" vertex="1" parent="1">
          <mxGeometry x="304" y="239.5" width="60" height="30" as="geometry" />
        </mxCell>
        <mxCell id="4o4SUJem6joKyU4sRVz0-58" value="&lt;b&gt;&lt;font style=&quot;font-size: 18px;&quot;&gt;中间 CA&lt;/font&gt;&lt;/b&gt;" style="text;html=1;align=center;verticalAlign=middle;whiteSpace=wrap;rounded=0;fontColor=#FF0080;textOpacity=50;" vertex="1" parent="1">
          <mxGeometry x="455.75" y="340.5" width="76.5" height="20" as="geometry" />
        </mxCell>
        <mxCell id="4o4SUJem6joKyU4sRVz0-61" style="edgeStyle=orthogonalEdgeStyle;rounded=0;orthogonalLoop=1;jettySize=auto;html=1;entryX=0.029;entryY=0.657;entryDx=0;entryDy=0;entryPerimeter=0;strokeColor=#7c8183;align=center;verticalAlign=middle;fontFamily=Helvetica;fontSize=11;fontColor=default;labelBackgroundColor=default;endArrow=classic;curved=1;dashed=1;" edge="1" parent="1" source="4o4SUJem6joKyU4sRVz0-46" target="4o4SUJem6joKyU4sRVz0-28">
          <mxGeometry relative="1" as="geometry">
            <Array as="points">
              <mxPoint x="380" y="387" />
              <mxPoint x="425" y="387" />
            </Array>
          </mxGeometry>
        </mxCell>
        <mxCell id="4o4SUJem6joKyU4sRVz0-69" value="签名" style="edgeLabel;html=1;align=center;verticalAlign=middle;resizable=0;points=[];rounded=0;strokeColor=#7c8183;fontFamily=Helvetica;fontSize=11;fontColor=default;labelBackgroundColor=default;" vertex="1" connectable="0" parent="4o4SUJem6joKyU4sRVz0-61">
          <mxGeometry x="0.2836" y="-2" relative="1" as="geometry">
            <mxPoint as="offset" />
          </mxGeometry>
        </mxCell>
        <mxCell id="4o4SUJem6joKyU4sRVz0-62" style="edgeStyle=orthogonalEdgeStyle;rounded=0;orthogonalLoop=1;jettySize=auto;html=1;entryX=0.029;entryY=0.55;entryDx=0;entryDy=0;entryPerimeter=0;strokeColor=#7c8183;align=center;verticalAlign=middle;fontFamily=Helvetica;fontSize=11;fontColor=default;labelBackgroundColor=default;endArrow=classic;curved=1;dashed=1;" edge="1" parent="1" source="4o4SUJem6joKyU4sRVz0-52" target="4o4SUJem6joKyU4sRVz0-45">
          <mxGeometry relative="1" as="geometry">
            <Array as="points">
              <mxPoint x="290" y="305" />
              <mxPoint x="335" y="305" />
            </Array>
          </mxGeometry>
        </mxCell>
        <mxCell id="4o4SUJem6joKyU4sRVz0-68" value="签名" style="edgeLabel;html=1;align=center;verticalAlign=middle;resizable=0;points=[];rounded=0;strokeColor=#7c8183;fontFamily=Helvetica;fontSize=11;fontColor=default;labelBackgroundColor=default;" vertex="1" connectable="0" parent="4o4SUJem6joKyU4sRVz0-62">
          <mxGeometry x="0.1579" y="-1" relative="1" as="geometry">
            <mxPoint as="offset" />
          </mxGeometry>
        </mxCell>
        <mxCell id="4o4SUJem6joKyU4sRVz0-67" style="edgeStyle=orthogonalEdgeStyle;rounded=0;orthogonalLoop=1;jettySize=auto;html=1;entryX=0.44;entryY=0.042;entryDx=0;entryDy=0;entryPerimeter=0;strokeColor=#7c8183;align=center;verticalAlign=middle;fontFamily=Helvetica;fontSize=11;fontColor=default;labelBackgroundColor=default;endArrow=classic;curved=1;dashed=1;" edge="1" parent="1" source="4o4SUJem6joKyU4sRVz0-29" target="4o4SUJem6joKyU4sRVz0-38">
          <mxGeometry relative="1" as="geometry" />
        </mxCell>
        <mxCell id="4o4SUJem6joKyU4sRVz0-70" value="签名" style="edgeLabel;html=1;align=center;verticalAlign=middle;resizable=0;points=[];rounded=0;strokeColor=#7c8183;fontFamily=Helvetica;fontSize=11;fontColor=default;labelBackgroundColor=default;" vertex="1" connectable="0" parent="4o4SUJem6joKyU4sRVz0-67">
          <mxGeometry x="-0.1674" y="-1" relative="1" as="geometry">
            <mxPoint x="7" y="4" as="offset" />
          </mxGeometry>
        </mxCell>
        <mxCell id="4o4SUJem6joKyU4sRVz0-71" value="" style="sketch=0;aspect=fixed;html=1;align=center;fontSize=12;image=img/lib/mscae/Key.svg;pointerEvents=1;shadow=0;dashed=0;strokeColor=none;labelPosition=center;verticalLabelPosition=bottom;verticalAlign=top;outlineConnect=0;shape=mxgraph.office.security.key_permissions;fillColor=#7FBA42;" vertex="1" parent="1">
          <mxGeometry x="97.6" y="414.5" width="12.4" height="20" as="geometry" />
        </mxCell>
        <mxCell id="4o4SUJem6joKyU4sRVz0-72" value="ca.crt" style="text;html=1;align=left;verticalAlign=middle;whiteSpace=wrap;rounded=0;" vertex="1" parent="1">
          <mxGeometry x="119.4" y="409.5" width="60" height="30" as="geometry" />
        </mxCell>
        <mxCell id="4o4SUJem6joKyU4sRVz0-73" value="" style="sketch=0;aspect=fixed;html=1;align=center;fontSize=12;image=img/lib/mscae/Key.svg;pointerEvents=1;shadow=0;dashed=0;strokeColor=none;labelPosition=center;verticalLabelPosition=bottom;verticalAlign=top;outlineConnect=0;shape=mxgraph.office.security.key_permissions;fillColor=#7FBA42;" vertex="1" parent="1">
          <mxGeometry x="97.6" y="466" width="12.4" height="20" as="geometry" />
        </mxCell>
        <mxCell id="4o4SUJem6joKyU4sRVz0-74" value="server.crt" style="text;html=1;align=left;verticalAlign=middle;whiteSpace=wrap;rounded=0;" vertex="1" parent="1">
          <mxGeometry x="119.4" y="461" width="60" height="30" as="geometry" />
        </mxCell>
        <mxCell id="4o4SUJem6joKyU4sRVz0-81" value="" style="points=[[0,0.5,0],[0.24,0,0],[0.5,0.28,0],[0.995,0.475,0],[0.5,0.72,0],[0.24,1,0]];verticalLabelPosition=bottom;sketch=0;html=1;verticalAlign=top;aspect=fixed;align=center;pointerEvents=1;shape=mxgraph.cisco19.key;fillColor=#005073;strokeColor=none;" vertex="1" parent="1">
          <mxGeometry x="98.4" y="576" width="24" height="10.8" as="geometry" />
        </mxCell>
        <mxCell id="4o4SUJem6joKyU4sRVz0-83" value="" style="points=[[0,0.5,0],[0.24,0,0],[0.5,0.28,0],[0.995,0.475,0],[0.5,0.72,0],[0.24,1,0]];verticalLabelPosition=bottom;sketch=0;html=1;verticalAlign=top;aspect=fixed;align=center;pointerEvents=1;shape=mxgraph.cisco19.key;fillColor=#005073;strokeColor=none;" vertex="1" parent="1">
          <mxGeometry x="99.4" y="594" width="24" height="10.8" as="geometry" />
        </mxCell>
        <mxCell id="4o4SUJem6joKyU4sRVz0-84" value="client-key" style="text;html=1;align=left;verticalAlign=middle;whiteSpace=wrap;rounded=0;" vertex="1" parent="1">
          <mxGeometry x="130" y="564" width="60" height="30" as="geometry" />
        </mxCell>
        <mxCell id="4o4SUJem6joKyU4sRVz0-85" value="server-key" style="text;html=1;align=left;verticalAlign=middle;whiteSpace=wrap;rounded=0;" vertex="1" parent="1">
          <mxGeometry x="130" y="584.4" width="60" height="30" as="geometry" />
        </mxCell>
        <mxCell id="4o4SUJem6joKyU4sRVz0-86" value="" style="points=[[0,0.5,0],[0.24,0,0],[0.5,0.28,0],[0.995,0.475,0],[0.5,0.72,0],[0.24,1,0]];verticalLabelPosition=bottom;sketch=0;html=1;verticalAlign=top;aspect=fixed;align=center;pointerEvents=1;shape=mxgraph.cisco19.key;fillColor=#005073;strokeColor=none;" vertex="1" parent="1">
          <mxGeometry x="669.6999999999999" y="576" width="24" height="10.8" as="geometry" />
        </mxCell>
        <mxCell id="4o4SUJem6joKyU4sRVz0-87" value="" style="points=[[0,0.5,0],[0.24,0,0],[0.5,0.28,0],[0.995,0.475,0],[0.5,0.72,0],[0.24,1,0]];verticalLabelPosition=bottom;sketch=0;html=1;verticalAlign=top;aspect=fixed;align=center;pointerEvents=1;shape=mxgraph.cisco19.key;fillColor=#005073;strokeColor=none;" vertex="1" parent="1">
          <mxGeometry x="669.6999999999999" y="594" width="24" height="10.8" as="geometry" />
        </mxCell>
        <mxCell id="4o4SUJem6joKyU4sRVz0-88" value="client-key" style="text;html=1;align=left;verticalAlign=middle;whiteSpace=wrap;rounded=0;" vertex="1" parent="1">
          <mxGeometry x="697.3" y="564" width="60" height="30" as="geometry" />
        </mxCell>
        <mxCell id="4o4SUJem6joKyU4sRVz0-89" value="server-key" style="text;html=1;align=left;verticalAlign=middle;whiteSpace=wrap;rounded=0;" vertex="1" parent="1">
          <mxGeometry x="697.3" y="584.4" width="60" height="30" as="geometry" />
        </mxCell>
        <mxCell id="4o4SUJem6joKyU4sRVz0-91" value="" style="endArrow=classic;startArrow=classic;html=1;rounded=0;dashed=1;strokeColor=#7c8183;align=center;verticalAlign=middle;fontFamily=Helvetica;fontSize=11;fontColor=default;labelBackgroundColor=default;" edge="1" parent="1">
          <mxGeometry width="50" height="50" relative="1" as="geometry">
            <mxPoint x="112.10000000000001" y="576.5" as="sourcePoint" />
            <mxPoint x="662.7" y="577" as="targetPoint" />
            <Array as="points">
              <mxPoint x="402" y="490" />
            </Array>
          </mxGeometry>
        </mxCell>
        <mxCell id="4o4SUJem6joKyU4sRVz0-94" style="edgeStyle=orthogonalEdgeStyle;rounded=0;orthogonalLoop=1;jettySize=auto;html=1;entryX=0.462;entryY=0.008;entryDx=0;entryDy=0;entryPerimeter=0;strokeColor=#7c8183;align=center;verticalAlign=middle;fontFamily=Helvetica;fontSize=11;fontColor=default;labelBackgroundColor=default;endArrow=classic;" edge="1" parent="1" source="4o4SUJem6joKyU4sRVz0-71" target="4o4SUJem6joKyU4sRVz0-73">
          <mxGeometry relative="1" as="geometry" />
        </mxCell>
        <mxCell id="4o4SUJem6joKyU4sRVz0-95" value="验证签名" style="edgeLabel;html=1;align=center;verticalAlign=middle;resizable=0;points=[];rounded=0;strokeColor=#7c8183;fontFamily=Helvetica;fontSize=11;fontColor=default;labelBackgroundColor=default;" vertex="1" connectable="0" parent="4o4SUJem6joKyU4sRVz0-94">
          <mxGeometry x="-0.2413" y="1" relative="1" as="geometry">
            <mxPoint x="5" as="offset" />
          </mxGeometry>
        </mxCell>
        <mxCell id="4o4SUJem6joKyU4sRVz0-96" style="edgeStyle=orthogonalEdgeStyle;rounded=0;orthogonalLoop=1;jettySize=auto;html=1;entryX=0.24;entryY=0;entryDx=0;entryDy=0;entryPerimeter=0;" edge="1" parent="1" source="4o4SUJem6joKyU4sRVz0-73" target="4o4SUJem6joKyU4sRVz0-81">
          <mxGeometry relative="1" as="geometry" />
        </mxCell>
        <mxCell id="4o4SUJem6joKyU4sRVz0-97" value="非对称加密&lt;div&gt;随机数并生成&lt;/div&gt;" style="edgeLabel;html=1;align=center;verticalAlign=middle;resizable=0;points=[];" vertex="1" connectable="0" parent="4o4SUJem6joKyU4sRVz0-96">
          <mxGeometry x="-0.2318" y="1" relative="1" as="geometry">
            <mxPoint x="15" y="9" as="offset" />
          </mxGeometry>
        </mxCell>
        <mxCell id="4o4SUJem6joKyU4sRVz0-106" value="&lt;font style=&quot;font-size: 18px;&quot;&gt;&lt;b style=&quot;&quot;&gt;传输&lt;/b&gt;&lt;/font&gt;" style="text;html=1;align=center;verticalAlign=middle;whiteSpace=wrap;rounded=0;fontColor=#FF3399;labelBackgroundColor=default;" vertex="1" parent="1">
          <mxGeometry x="275" y="577" width="60" height="30" as="geometry" />
        </mxCell>
        <mxCell id="4o4SUJem6joKyU4sRVz0-108" style="edgeStyle=orthogonalEdgeStyle;rounded=0;orthogonalLoop=1;jettySize=auto;html=1;entryX=0.24;entryY=0;entryDx=0;entryDy=0;entryPerimeter=0;strokeColor=#A8201A;fontColor=#143642;fillColor=#FAE5C7;" edge="1" parent="1" source="4o4SUJem6joKyU4sRVz0-39" target="4o4SUJem6joKyU4sRVz0-86">
          <mxGeometry relative="1" as="geometry" />
        </mxCell>
        <mxCell id="4o4SUJem6joKyU4sRVz0-109" value="密钥交换后&lt;div&gt;解密&lt;/div&gt;" style="edgeLabel;html=1;align=center;verticalAlign=middle;resizable=0;points=[];strokeColor=#0F8B8D;fontColor=#143642;fillColor=#FAE5C7;" vertex="1" connectable="0" parent="4o4SUJem6joKyU4sRVz0-108">
          <mxGeometry x="-0.2551" y="1" relative="1" as="geometry">
            <mxPoint x="4" y="3" as="offset" />
          </mxGeometry>
        </mxCell>
        <mxCell id="4o4SUJem6joKyU4sRVz0-110" value="" style="points=[[0,0.5,0],[0.24,0,0],[0.5,0.28,0],[0.995,0.475,0],[0.5,0.72,0],[0.24,1,0]];verticalLabelPosition=bottom;sketch=0;html=1;verticalAlign=top;aspect=fixed;align=center;pointerEvents=1;shape=mxgraph.cisco19.key;fillColor=#005073;strokeColor=none;" vertex="1" parent="1">
          <mxGeometry x="533.9999999999999" y="262.71" width="24" height="10.8" as="geometry" />
        </mxCell>
        <mxCell id="4o4SUJem6joKyU4sRVz0-112" value="对称加密密钥" style="text;html=1;align=left;verticalAlign=middle;whiteSpace=wrap;rounded=0;" vertex="1" parent="1">
          <mxGeometry x="563" y="259.65" width="82" height="16.35" as="geometry" />
        </mxCell>
      </root>
    </mxGraphModel>
  </diagram>
  <diagram id="3y-Oo4LURs1xDXRqvkbr" name="第 3 页">
    <mxGraphModel dx="1147" dy="609" grid="1" gridSize="10" guides="1" tooltips="1" connect="1" arrows="1" fold="1" page="1" pageScale="1" pageWidth="827" pageHeight="1169" math="0" shadow="0">
      <root>
        <mxCell id="0" />
        <mxCell id="1" parent="0" />
        <mxCell id="_nJ_nrdl89LlA6NBQZkK-1" style="edgeStyle=orthogonalEdgeStyle;rounded=0;orthogonalLoop=1;jettySize=auto;html=1;entryX=0;entryY=0.5;entryDx=0;entryDy=0;" edge="1" parent="1" source="_nJ_nrdl89LlA6NBQZkK-3" target="_nJ_nrdl89LlA6NBQZkK-6">
          <mxGeometry relative="1" as="geometry" />
        </mxCell>
        <mxCell id="_nJ_nrdl89LlA6NBQZkK-2" value="https://pve.home.lan/" style="edgeLabel;html=1;align=center;verticalAlign=middle;resizable=0;points=[];" vertex="1" connectable="0" parent="_nJ_nrdl89LlA6NBQZkK-1">
          <mxGeometry x="-0.1452" y="2" relative="1" as="geometry">
            <mxPoint as="offset" />
          </mxGeometry>
        </mxCell>
        <mxCell id="_nJ_nrdl89LlA6NBQZkK-3" value="" style="dashed=0;outlineConnect=0;html=1;align=center;labelPosition=center;verticalLabelPosition=bottom;verticalAlign=top;shape=mxgraph.weblogos.chrome" vertex="1" parent="1">
          <mxGeometry x="120" y="250" width="70" height="70" as="geometry" />
        </mxCell>
        <mxCell id="_nJ_nrdl89LlA6NBQZkK-4" style="edgeStyle=orthogonalEdgeStyle;rounded=0;orthogonalLoop=1;jettySize=auto;html=1;entryX=0;entryY=0.5;entryDx=0;entryDy=0;" edge="1" parent="1" source="_nJ_nrdl89LlA6NBQZkK-6" target="_nJ_nrdl89LlA6NBQZkK-9">
          <mxGeometry relative="1" as="geometry" />
        </mxCell>
        <mxCell id="_nJ_nrdl89LlA6NBQZkK-5" value="https://192.168.0.112:8006/" style="edgeLabel;html=1;align=center;verticalAlign=middle;resizable=0;points=[];" vertex="1" connectable="0" parent="_nJ_nrdl89LlA6NBQZkK-4">
          <mxGeometry x="-0.1692" y="-1" relative="1" as="geometry">
            <mxPoint x="9" y="-1" as="offset" />
          </mxGeometry>
        </mxCell>
        <mxCell id="_nJ_nrdl89LlA6NBQZkK-6" value="Kong&lt;div&gt;API gataway&lt;/div&gt;&lt;div&gt;192.168.0.110:443&lt;/div&gt;" style="rounded=1;whiteSpace=wrap;html=1;fillColor=#1ba1e2;strokeColor=#006EAF;fontColor=#ffffff;" vertex="1" parent="1">
          <mxGeometry x="330" y="255" width="120" height="60" as="geometry" />
        </mxCell>
        <mxCell id="_nJ_nrdl89LlA6NBQZkK-7" value="Cookies" style="text;html=1;align=center;verticalAlign=middle;whiteSpace=wrap;rounded=0;" vertex="1" parent="1">
          <mxGeometry x="203" y="290" width="60" height="30" as="geometry" />
        </mxCell>
        <mxCell id="_nJ_nrdl89LlA6NBQZkK-9" value="PVE&lt;div&gt;192.168.0.112:8006&lt;/div&gt;" style="rounded=1;whiteSpace=wrap;html=1;fillColor=#d80073;strokeColor=#A50040;fontColor=#ffffff;" vertex="1" parent="1">
          <mxGeometry x="610" y="255" width="120" height="60" as="geometry" />
        </mxCell>
        <mxCell id="_nJ_nrdl89LlA6NBQZkK-10" value="&lt;b&gt;&lt;font color=&quot;#3399ff&quot; style=&quot;font-size: 18px;&quot;&gt;HTTPS&lt;/font&gt;&lt;/b&gt;" style="text;html=1;align=center;verticalAlign=middle;whiteSpace=wrap;rounded=0;" vertex="1" parent="1">
          <mxGeometry x="219" y="250" width="60" height="30" as="geometry" />
        </mxCell>
        <mxCell id="_nJ_nrdl89LlA6NBQZkK-11" value="&lt;b&gt;&lt;font color=&quot;#3399ff&quot; style=&quot;font-size: 18px;&quot;&gt;HTTPS&lt;/font&gt;&lt;/b&gt;" style="text;html=1;align=center;verticalAlign=middle;whiteSpace=wrap;rounded=0;" vertex="1" parent="1">
          <mxGeometry x="500" y="250" width="60" height="30" as="geometry" />
        </mxCell>
        <mxCell id="ugQDLIw0DpXwQ3O6aBCA-1" value="" style="shape=image;html=1;verticalAlign=top;verticalLabelPosition=bottom;labelBackgroundColor=#ffffff;imageAspect=0;aspect=fixed;image=https://cdn3.iconfinder.com/data/icons/flat-actions-icons-9/512/Tick_Mark-128.png" vertex="1" parent="1">
          <mxGeometry x="263" y="291.5" width="27" height="27" as="geometry" />
        </mxCell>
      </root>
    </mxGraphModel>
  </diagram>
</mxfile>
